{
    "asset" : {
        "copyright" : "LAIN",
        "generator" : "Khronos glTF Blender I/O v1.5.17",
        "version" : "2.0"
    },
    "scene" : 0,
    "scenes" : [
        {
            "name" : "Scene",
            "nodes" : [
                0
            ]
        }
    ],
    "nodes" : [
        {
            "mesh" : 0,
            "name" : "Cube",
            "rotation" : [
                -0.2818700671195984,
                0,
                0,
                0.9594526886940002
            ]
        }
    ],
    "materials" : [
        {
            "doubleSided" : true,
            "name" : "Material",
            "pbrMetallicRoughness" : {
                "metallicFactor" : 0,
                "roughnessFactor" : 0.5
            }
        }
    ],
    "meshes" : [
        {
            "name" : "Cube.001",
            "primitives" : [
                {
                    "attributes" : {
                        "POSITION" : 0,
                        "NORMAL" : 1,
                        "TEXCOORD_0" : 2,
                        "COLOR_0" : 3
                    },
                    "indices" : 4,
                    "material" : 0
                }
            ]
        }
    ],
    "accessors" : [
        {
            "bufferView" : 0,
            "componentType" : 5126,
            "count" : 18618,
            "max" : [
                0.9429940581321716,
                6.7269744873046875,
                5.5176167488098145
            ],
            "min" : [
                -1.6653459072113037,
                -1.8561124801635742,
                -3.129314422607422
            ],
            "type" : "VEC3"
        },
        {
            "bufferView" : 1,
            "componentType" : 5126,
            "count" : 18618,
            "type" : "VEC3"
        },
        {
            "bufferView" : 2,
            "componentType" : 5126,
            "count" : 18618,
            "type" : "VEC2"
        },
        {
            "bufferView" : 3,
            "componentType" : 5123,
            "count" : 18618,
            "normalized" : true,
            "type" : "VEC4"
        },
        {
            "bufferView" : 4,
            "componentType" : 5123,
            "count" : 98304,
            "type" : "SCALAR"
        }
    ],
    "bufferViews" : [
        {
            "buffer" : 0,
            "byteLength" : 223416,
            "byteOffset" : 0
        },
        {
            "buffer" : 0,
            "byteLength" : 223416,
            "byteOffset" : 223416
        },
        {
            "buffer" : 0,
            "byteLength" : 148944,
            "byteOffset" : 446832
        },
        {
            "buffer" : 0,
            "byteLength" : 148944,
            "byteOffset" : 595776
        },
        {
            "buffer" : 0,
            "byteLength" : 196608,
            "byteOffset" : 744720
        }
    ],
    "buffers" : [
        {
            "byteLength" : 941328,
            "uri" : "data:application/octet-stream;base64,"
        }
    ]
}
